<?xml version="1.0" standalone="no"?>
<!DOCTYPE svg PUBLIC "-//W3C//DTD SVG 20010904//EN"
 "http://www.w3.org/TR/2001/REC-SVG-20010904/DTD/svg10.dtd">
<svg version="1.0" xmlns="http://www.w3.org/2000/svg"
 width="512.000000pt" height="512.000000pt" viewBox="0 0 512.000000 512.000000"
 preserveAspectRatio="xMidYMid meet">

<g transform="translate(0.000000,512.000000) scale(0.100000,-0.100000)"
fill="#000000" stroke="none">
<path d="M2321 5079 c-655 -50 -1250 -300 -1667 -701 -264 -254 -427 -525
-509 -850 -30 -118 -32 -190 -5 -262 l21 -54 -22 -64 c-17 -50 -20 -80 -17
-143 7 -131 68 -238 181 -313 l37 -25 0 -133 0 -134 -57 -27 c-86 -41 -183
-138 -226 -226 -94 -190 -68 -420 62 -569 l40 -45 -20 -62 c-36 -118 -19 -245
47 -341 l34 -50 0 -210 c0 -256 12 -326 78 -460 37 -75 62 -111 122 -171 124
-125 255 -189 427 -209 120 -14 3306 -14 3426 0 172 20 303 84 427 209 60 60
85 96 122 171 65 131 78 206 78 438 l0 189 26 24 c72 66 124 187 124 289 0 61
-22 149 -47 187 -14 21 -14 25 11 58 116 152 136 376 50 551 -44 89 -141 186
-227 227 l-57 27 0 122 0 123 54 28 c70 37 150 121 184 194 23 51 27 71 27
158 0 94 -2 105 -33 168 -30 59 -32 72 -23 99 26 73 0 228 -69 416 -176 482
-638 924 -1205 1155 -440 179 -916 253 -1394 216z m460 -199 c994 -77 1808
-643 1999 -1391 24 -93 25 -130 5 -169 -33 -65 139 -60 -2225 -60 -2364 0
-2192 -5 -2225 60 -20 39 -19 76 5 169 128 502 551 944 1137 1187 403 168 855
238 1304 204z m2068 -1853 c1 -21 -6 -54 -14 -75 -49 -116 -171 -154 -330
-103 -51 16 -94 22 -162 23 -138 0 -205 -23 -357 -126 -85 -56 -144 -76 -226
-76 -82 0 -141 20 -226 76 -152 103 -216 125 -358 125 -139 1 -221 -26 -351
-115 -89 -60 -158 -85 -235 -86 -92 0 -131 14 -244 86 -54 35 -124 73 -155 85
-111 41 -280 42 -387 1 -28 -10 -93 -46 -145 -80 -116 -75 -162 -92 -250 -92
-82 0 -141 20 -225 77 -190 129 -331 154 -539 98 -107 -29 -149 -29 -213 4
-72 37 -112 102 -112 182 0 45 2 50 18 43 9 -5 1003 -10 2209 -12 2093 -2
2194 -1 2240 16 55 21 61 16 62 -51z m-2701 -386 c23 -12 76 -44 117 -71 106
-69 171 -91 285 -97 148 -8 240 19 373 109 103 70 157 90 245 89 97 0 141 -16
260 -92 117 -76 183 -100 294 -107 148 -8 246 21 391 120 121 82 229 100 362
59 37 -12 76 -21 86 -21 17 0 19 -9 19 -100 l0 -100 -2020 0 -2020 0 0 94 0
94 43 7 c23 4 71 15 106 26 77 23 192 25 252 4 24 -9 85 -43 137 -76 117 -76
183 -100 294 -107 148 -8 246 22 390 119 32 22 76 47 96 56 83 35 215 32 290
-6z m-1073 -690 c154 -154 293 -285 309 -291 16 -6 41 -8 56 -5 16 3 84 64
175 155 83 83 154 150 160 150 12 0 365 -351 365 -363 0 -4 -381 -6 -847 -5
-953 4 -896 -1 -987 79 -188 166 -109 493 131 545 32 7 125 13 208 13 l149 1
281 -279z m500 219 l60 -60 -108 -108 -107 -107 -167 168 -168 167 215 0 216
0 59 -60z m1435 -345 c-223 -223 -405 -405 -405 -405 0 0 -182 182 -405 405
l-405 405 810 0 810 0 -405 -405z m1657 394 c158 -28 265 -172 250 -336 -15
-154 -112 -258 -264 -283 -60 -10 -1583 -14 -1583 -5 0 3 143 147 318 320
l317 314 449 1 c287 0 472 -4 513 -11z m173 -805 c16 -41 11 -105 -11 -151
-48 -100 -167 -137 -306 -95 -192 58 -346 32 -526 -90 -99 -67 -141 -82 -237
-82 -97 0 -138 15 -240 84 -145 99 -280 134 -428 113 -96 -14 -159 -41 -279
-120 -78 -52 -103 -63 -163 -73 -113 -19 -177 -3 -303 78 -120 78 -203 110
-301 118 -138 12 -261 -24 -397 -116 -101 -69 -143 -84 -239 -84 -96 0 -138
15 -237 82 -178 121 -336 148 -522 91 -177 -54 -319 18 -328 168 -5 79 3 90
58 73 35 -11 239 -15 1009 -17 l965 -4 100 -99 c145 -145 158 -144 310 9 l90
91 870 0 c854 1 969 4 1050 33 55 20 54 20 65 -9z m-3928 -428 c37 -8 86 -33
142 -70 164 -109 274 -139 429 -119 100 14 162 40 284 120 170 112 301 110
473 -7 234 -159 456 -159 690 0 119 81 201 102 314 80 50 -9 85 -25 158 -72
172 -112 276 -141 431 -121 101 14 156 37 274 115 141 92 221 106 364 62 54
-16 109 -26 157 -26 l72 -1 0 -142 c0 -92 -5 -160 -15 -198 -45 -175 -176
-310 -350 -364 -57 -17 -139 -18 -1775 -18 -1636 0 -1718 1 -1775 18 -174 54
-305 189 -350 364 -10 38 -15 106 -15 206 l0 149 32 -7 c62 -14 162 -6 243 19
92 28 137 31 217 12z"/>
<path d="M2445 4686 c-67 -67 -22 -172 72 -169 44 1 93 48 93 89 0 33 -25 81
-49 94 -36 18 -90 12 -116 -14z"/>
<path d="M2925 4641 c-62 -26 -81 -110 -34 -157 21 -21 51 -31 161 -54 419
-87 750 -254 1004 -505 122 -122 180 -198 249 -331 54 -104 74 -124 124 -124
53 1 101 47 101 99 0 35 -107 232 -174 322 -87 116 -270 288 -397 376 -254
173 -543 293 -864 358 -133 27 -140 28 -170 16z"/>
<path d="M1527 4194 c-43 -23 -62 -98 -34 -135 63 -81 178 -48 181 51 1 35 -4
47 -32 71 -36 32 -72 36 -115 13z"/>
<path d="M2288 4181 c-27 -24 -33 -36 -33 -69 0 -100 128 -137 178 -53 30 51
15 111 -34 137 -42 21 -75 17 -111 -15z"/>
<path d="M1053 3825 c-91 -39 -59 -185 42 -185 51 0 95 44 95 95 0 49 -15 74
-55 91 -41 17 -42 17 -82 -1z"/>
<path d="M2053 3825 c-91 -39 -59 -185 42 -185 51 0 95 44 95 95 0 49 -15 74
-55 91 -41 17 -42 17 -82 -1z"/>
<path d="M2751 3754 c-30 -21 -51 -71 -44 -107 7 -34 56 -77 89 -77 56 0 103
45 104 98 0 44 -14 68 -50 87 -38 19 -70 19 -99 -1z"/>
</g>
</svg>
